<svg width="829.4399902343749px" height="213.239990234375px" xmlns="http://www.w3.org/2000/svg" viewBox="-164.71999511718747 -31.6199951171875 829.4399902343749 213.239990234375" style="background: rgba(0, 0, 0, 0) none repeat scroll 0% 0%;" preserveAspectRatio="xMidYMid"><defs><filter id="editing-extrusion" x="-100%" y="-100%" width="300%" height="300%"><feFlood result="color1" flood-color="#31ff6c"></feFlood><feConvolveMatrix order="8,8" divisor="1" kernelMatrix="1 0 0 0 0 0 0 0 0 1 0 0 0 0 0 0 0 0 1 0 0 0 0 0 0 0 0 1 0 0 0 0 0 0 0 0 1 0 0 0 0 0 0 0 0 1 0 0 0 0 0 0 0 0 1 0 0 0 0 0 0 0 0 1" in="SourceAlpha" result="extrude"></feConvolveMatrix><feComposite in="color1" in2="extrude" result="comp-extrude" operator="in"></feComposite><feOffset dx="4" dy="4" in="comp-extrude" result="offset-extrude"></feOffset><feMerge><feMergeNode in="offset-extrude"></feMergeNode><feMergeNode in="SourceGraphic"></feMergeNode></feMerge></filter></defs><g filter="url(#editing-extrusion)"><g transform="translate(-44.82999348640442, 112.96499729156494)"><path d="M48.87-21.36L35.51-21.36L36.78-24.52L47.59-24.52L48.87-21.36ZM51.42-15.03L33.05-15.03L34.28-18.19L50.05-18.19L51.42-15.03ZM53.88-8.70L30.59-8.70L31.82-11.87L52.56-11.87L53.88-8.70ZM31.95-68.51L4.88 0L1.45 0L30.23-72.77L33.66-72.77L62.40 0L59.02 0L31.95-68.51ZM8.26 0L32.34-61.00L34.15-56.95L11.65 0L8.26 0ZM15.07 0L35.86-52.65L37.53-48.30L18.50 0L15.07 0ZM21.88 0L39.20-43.95L40.87-39.51L25.27 0L21.88 0ZM54.05-72.77L82.84 0L79.41 0L50.67-72.77L54.05-72.77ZM43.86-72.77L47.24-72.77L76.03 0L72.64 0L43.86-72.77ZM37.05-72.77L40.43-72.77L69.21 0L65.79 0L37.05-72.77ZM129.90-28.04L129.90-28.04L129.90-63.28L133.07-63.28L133.07-28.04L133.07-28.04Q133.07-23.03 129.22-19.42L129.22-19.42L129.22-19.42Q125.38-15.82 119.97-15.82L119.97-15.82L119.97-15.82Q114.57-15.82 110.72-19.42L110.72-19.42L110.72-19.42Q106.88-23.03 106.88-28.04L106.88-28.04L106.88-63.28L110.04-63.28L110.04-28.04L110.04-28.04Q110.04-24.30 112.96-21.64L112.96-21.64L112.96-21.64Q115.88-18.98 119.97-18.98L119.97-18.98L119.97-18.98Q124.06-18.98 126.98-21.64L126.98-21.64L126.98-21.64Q129.90-24.30 129.90-28.04ZM136.23-28.04L136.23-28.04L136.23-63.28L139.39-63.28L139.39-28.04L139.39-28.04Q139.39-20.35 133.68-14.92L133.68-14.92L133.68-14.92Q127.97-9.49 119.97-9.49L119.97-9.49L119.97-9.49Q111.97-9.49 106.26-14.92L106.26-14.92L106.26-14.92Q100.55-20.35 100.55-28.04L100.55-28.04L100.55-63.28L103.71-63.28L103.71-28.04L103.71-28.04Q103.71-21.67 108.48-17.16L108.48-17.16L108.48-17.16Q113.25-12.66 119.97-12.66L119.97-12.66L119.97-12.66Q126.65-12.66 131.44-17.16L131.44-17.16L131.44-17.16Q136.23-21.67 136.23-28.04ZM142.56-28.04L142.56-28.04L142.56-63.28L145.72-63.28L145.72-28.04L145.72-28.04Q145.72-21.31 142.25-15.58L142.25-15.58L142.25-15.58Q138.78-9.84 132.85-6.50L132.85-6.50L132.85-6.50Q126.91-3.16 119.97-3.16L119.97-3.16L119.97-3.16Q113.03-3.16 107.09-6.50L107.09-6.50L107.09-6.50Q101.16-9.84 97.69-15.58L97.69-15.58L97.69-15.58Q94.22-21.31 94.22-28.04L94.22-28.04L94.22-63.28L97.38-63.28L97.38-28.04L97.38-28.04Q97.38-22.19 100.42-17.18L100.42-17.18L100.42-17.18Q103.45-12.17 108.65-9.25L108.65-9.25L108.65-9.25Q113.86-6.33 119.97-6.33L119.97-6.33L119.97-6.33Q126.08-6.33 131.29-9.25L131.29-9.25L131.29-9.25Q136.49-12.17 139.53-17.18L139.53-17.18L139.53-17.18Q142.56-22.19 142.56-28.04ZM148.89-28.04L148.89-28.04L148.89-63.28L152.05-63.28L152.05-28.04L152.05-28.04Q152.05-21.71 149.50-15.93L149.50-15.93L149.50-15.93Q146.95-10.15 142.65-5.98L142.65-5.98L142.65-5.98Q138.34-1.80 132.41 0.68L132.41 0.68L132.41 0.68Q126.47 3.16 119.97 3.16L119.97 3.16L119.97 3.16Q113.47 3.16 107.53 0.68L107.53 0.68L107.53 0.68Q101.60-1.80 97.29-5.98L97.29-5.98L97.29-5.98Q92.99-10.15 90.44-15.93L90.44-15.93L90.44-15.93Q87.89-21.71 87.89-28.04L87.89-28.04L87.89-63.28L91.05-63.28L91.05-28.04L91.05-28.04Q91.05-20.48 94.94-14.02L94.94-14.02L94.94-14.02Q98.83-7.56 105.49-3.78L105.49-3.78L105.49-3.78Q112.15 0 119.97 0L119.97 0L119.97 0Q127.79 0 134.45-3.78L134.45-3.78L134.45-3.78Q141.11-7.56 145.00-14.02L145.00-14.02L145.00-14.02Q148.89-20.48 148.89-28.04ZM171.21 0L171.21-45.75L174.38-45.75L174.38 0L171.21 0ZM206.02-60.12L158.55-60.12L158.55-63.28L206.02-63.28L206.02-60.12ZM206.02-53.79L158.55-53.79L158.55-56.95L206.02-56.95L206.02-53.79ZM206.02-47.46L158.55-47.46L158.55-50.63L206.02-50.63L206.02-47.46ZM190.20 0L190.20-45.75L193.36-45.75L193.36 0L190.20 0ZM183.87 0L183.87-45.75L187.03-45.75L187.03 0L183.87 0ZM177.54 0L177.54-45.75L180.70-45.75L180.70 0L177.54 0ZM237.15-40.58L237.15-40.58L237.15-40.58Q233.44-36.87 233.44-31.64L233.44-31.64L233.44-31.64Q233.44-26.41 237.15-22.70L237.15-22.70L237.15-22.70Q240.86-18.98 246.09-18.98L246.09-18.98L246.09-18.98Q251.32-18.98 255.04-22.70L255.04-22.70L255.04-22.70Q258.75-26.41 258.75-31.64L258.75-31.64L258.75-31.64Q258.75-36.87 255.04-40.58L255.04-40.58L255.04-40.58Q251.32-44.30 246.09-44.30L246.09-44.30L246.09-44.30Q240.86-44.30 237.15-40.58ZM234.91-20.46L234.91-20.46L234.91-20.46Q230.27-25.09 230.27-31.64L230.27-31.64L230.27-31.64Q230.27-38.19 234.91-42.82L234.91-42.82L234.91-42.82Q239.55-47.46 246.09-47.46L246.09-47.46L246.09-47.46Q252.64-47.46 257.28-42.82L257.28-42.82L257.28-42.82Q261.91-38.19 261.91-31.64L261.91-31.64L261.91-31.64Q261.91-25.09 257.28-20.46L257.28-20.46L257.28-20.46Q252.64-15.82 246.09-15.82L246.09-15.82L246.09-15.82Q239.55-15.82 234.91-20.46ZM232.67-45.04L232.67-45.04L232.67-45.04Q227.11-39.46 227.11-31.64L227.11-31.64L227.11-31.64Q227.11-23.82 232.67-18.24L232.67-18.24L232.67-18.24Q238.23-12.66 246.09-12.66L246.09-12.66L246.09-12.66Q253.96-12.66 259.52-18.24L259.52-18.24L259.52-18.24Q265.08-23.82 265.08-31.64L265.08-31.64L265.08-31.64Q265.08-39.46 259.52-45.04L259.52-45.04L259.52-45.04Q253.96-50.63 246.09-50.63L246.09-50.63L246.09-50.63Q238.23-50.63 232.67-45.04ZM226.91-20.52L226.91-20.52L226.91-20.52Q223.95-25.62 223.95-31.64L223.95-31.64L223.95-31.64Q223.95-37.66 226.91-42.76L226.91-42.76L226.91-42.76Q229.88-47.86 234.98-50.82L234.98-50.82L234.98-50.82Q240.07-53.79 246.09-53.79L246.09-53.79L246.09-53.79Q252.11-53.79 257.21-50.82L257.21-50.82L257.21-50.82Q262.31-47.86 265.28-42.76L265.28-42.76L265.28-42.76Q268.24-37.66 268.24-31.64L268.24-31.64L268.24-31.64Q268.24-25.62 265.28-20.52L265.28-20.52L265.28-20.52Q262.31-15.42 257.21-12.46L257.21-12.46L257.21-12.46Q252.11-9.49 246.09-9.49L246.09-9.49L246.09-9.49Q240.07-9.49 234.98-12.46L234.98-12.46L234.98-12.46Q229.88-15.42 226.91-20.52ZM222.78-41.46L222.78-41.46L222.78-41.46Q220.78-36.78 220.78-31.64L220.78-31.64L220.78-31.64Q220.78-26.50 222.78-21.82L222.78-21.82L222.78-21.82Q224.78-17.14 228.19-13.73L228.19-13.73L228.19-13.73Q231.59-10.33 236.27-8.33L236.27-8.33L236.27-8.33Q240.95-6.33 246.09-6.33L246.09-6.33L246.09-6.33Q251.24-6.33 255.92-8.33L255.92-8.33L255.92-8.33Q260.60-10.33 264.00-13.73L264.00-13.73L264.00-13.73Q267.41-17.14 269.41-21.82L269.41-21.82L269.41-21.82Q271.41-26.50 271.41-31.64L271.41-31.64L271.41-31.64Q271.41-36.78 269.41-41.46L269.41-41.46L269.41-41.46Q267.41-46.14 264.00-49.55L264.00-49.55L264.00-49.55Q260.60-52.95 255.92-54.95L255.92-54.95L255.92-54.95Q251.24-56.95 246.09-56.95L246.09-56.95L246.09-56.95Q240.95-56.95 236.27-54.95L236.27-54.95L236.27-54.95Q231.59-52.95 228.19-49.55L228.19-49.55L228.19-49.55Q224.78-46.14 222.78-41.46ZM219.88-20.57L219.88-20.57L219.88-20.57Q217.62-25.84 217.62-31.64L217.62-31.64L217.62-31.64Q217.62-37.44 219.88-42.71L219.88-42.71L219.88-42.71Q222.14-47.99 225.94-51.79L225.94-51.79L225.94-51.79Q229.75-55.59 235.02-57.85L235.02-57.85L235.02-57.85Q240.29-60.12 246.09-60.12L246.09-60.12L246.09-60.12Q251.89-60.12 257.17-57.85L257.17-57.85L257.17-57.85Q262.44-55.59 266.24-51.79L266.24-51.79L266.24-51.79Q270.04-47.99 272.31-42.71L272.31-42.71L272.31-42.71Q274.57-37.44 274.57-31.64L274.57-31.64L274.57-31.64Q274.57-25.84 272.31-20.57L272.31-20.57L272.31-20.57Q270.04-15.29 266.24-11.49L266.24-11.49L266.24-11.49Q262.44-7.69 257.17-5.43L257.17-5.43L257.17-5.43Q251.89-3.16 246.09-3.16L246.09-3.16L246.09-3.16Q240.29-3.16 235.02-5.43L235.02-5.43L235.02-5.43Q229.75-7.69 225.94-11.49L225.94-11.49L225.94-11.49Q222.14-15.29 219.88-20.57ZM216.96-43.92L216.96-43.92L216.96-43.92Q214.45-38.06 214.45-31.64L214.45-31.64L214.45-31.64Q214.45-25.22 216.96-19.36L216.96-19.36L216.96-19.36Q219.46-13.49 223.70-9.25L223.70-9.25L223.70-9.25Q227.94-5.01 233.81-2.50L233.81-2.50L233.81-2.50Q239.68 0 246.09 0L246.09 0L246.09 0Q252.51 0 258.38-2.50L258.38-2.50L258.38-2.50Q264.24-5.01 268.48-9.25L268.48-9.25L268.48-9.25Q272.72-13.49 275.23-19.36L275.23-19.36L275.23-19.36Q277.73-25.22 277.73-31.64L277.73-31.64L277.73-31.64Q277.73-38.06 275.23-43.92L275.23-43.92L275.23-43.92Q272.72-49.79 268.48-54.03L268.48-54.03L268.48-54.03Q264.24-58.27 258.38-60.78L258.38-60.78L258.38-60.78Q252.51-63.28 246.09-63.28L246.09-63.28L246.09-63.28Q239.68-63.28 233.81-60.78L233.81-60.78L233.81-60.78Q227.94-58.27 223.70-54.03L223.70-54.03L223.70-54.03Q219.46-49.79 216.96-43.92ZM214.06-18.13L214.06-18.13L214.06-18.13Q211.29-24.57 211.29-31.64L211.29-31.64L211.29-31.64Q211.29-38.72 214.06-45.15L214.06-45.15L214.06-45.15Q216.83-51.59 221.48-56.25L221.48-56.25L221.48-56.25Q226.14-60.91 232.58-63.68L232.58-63.68L232.58-63.68Q239.02-66.45 246.09-66.45L246.09-66.45L246.09-66.45Q253.17-66.45 259.61-63.68L259.61-63.68L259.61-63.68Q266.04-60.91 270.70-56.25L270.70-56.25L270.70-56.25Q275.36-51.59 278.13-45.15L278.13-45.15L278.13-45.15Q280.90-38.72 280.90-31.64L280.90-31.64L280.90-31.64Q280.90-24.57 278.13-18.13L278.13-18.13L278.13-18.13Q275.36-11.69 270.70-7.03L270.70-7.03L270.70-7.03Q266.04-2.37 259.61 0.40L259.61 0.40L259.61 0.40Q253.17 3.16 246.09 3.16L246.09 3.16L246.09 3.16Q239.02 3.16 232.58 0.40L232.58 0.40L232.58 0.40Q226.14-2.37 221.48-7.03L221.48-7.03L221.48-7.03Q216.83-11.69 214.06-18.13ZM308.67 0L279.89-72.77L283.32-72.77L310.39-4.26L337.46-72.77L340.84-72.77L312.10 0L308.67 0ZM290.08-72.77L312.58-15.82L310.78-11.78L286.70-72.77L290.08-72.77ZM296.94-72.77L315.97-24.48L314.30-20.13L293.51-72.77L296.94-72.77ZM303.71-72.77L319.31-33.27L317.64-28.83L300.32-72.77L303.71-72.77ZM329.11 0L357.85-72.77L361.27-72.77L332.49 0L329.11 0ZM322.29 0L351.08-72.77L354.46-72.77L325.68 0L322.29 0ZM315.48 0L344.22-72.77L347.65-72.77L318.87 0L315.48 0ZM419.41 0L419.41-26.54L422.58-32.52L422.58 0L419.41 0ZM425.74 0L425.74-38.67L428.91-44.65L428.91 0L425.74 0ZM432.07 0L432.07-50.63L435.23-56.65L435.23 0L432.07 0ZM434.40-72.77L410.84-28.04L409.04-31.33L430.84-72.77L434.40-72.77ZM427.24-72.77L407.20-34.94L405.35-38.28L423.63-72.77L427.24-72.77ZM386.02 0L386.02-32.17L389.18-26.19L389.18 0L386.02 0ZM379.69 0L379.69-44.21L382.85-38.23L382.85 0L379.69 0ZM373.36 0L373.36-56.25L376.52-50.23L376.52 0L373.36 0ZM370.59-72.77L398.94-18.98L395.38-18.98L370.20-66.75L370.20 0L367.03 0L367.03-72.77L370.59-72.77ZM377.80-72.77L406.10-18.98L402.50-18.98L374.19-72.77L377.80-72.77ZM438.40 0L438.40-66.75L413.22-18.98L409.61-18.98L381.36-72.77L384.92-72.77L411.46-22.32L437.96-72.77L441.56-72.77L441.56 0L438.40 0ZM494.69-21.36L481.33-21.36L482.61-24.52L493.42-24.52L494.69-21.36ZM497.24-15.03L478.87-15.03L480.10-18.19L495.88-18.19L497.24-15.03ZM499.70-8.70L476.41-8.70L477.64-11.87L498.38-11.87L499.70-8.70ZM477.77-68.51L450.70 0L447.28 0L476.06-72.77L479.49-72.77L508.23 0L504.84 0L477.77-68.51ZM454.09 0L478.17-61.00L479.97-56.95L457.47 0L454.09 0ZM460.90 0L481.68-52.65L483.35-48.30L464.33 0L460.90 0ZM467.71 0L485.02-43.95L486.69-39.51L471.09 0L467.71 0ZM499.88-72.77L528.66 0L525.23 0L496.49-72.77L499.88-72.77ZM489.68-72.77L493.07-72.77L521.85 0L518.47 0L489.68-72.77ZM482.87-72.77L486.25-72.77L515.04 0L511.61 0L482.87-72.77ZM556.35-25.31L556.35 0L553.18 0L553.18-72.77L588.21-72.77L588.21-69.61L556.35-69.61L556.35-66.45L588.21-66.45L588.21-63.28L556.35-63.28L556.35-60.12L588.21-60.12L588.21-56.95L556.35-56.95L556.35-41.13L586.71-41.13L586.71-37.97L556.35-37.97L556.35-34.80L586.71-34.80L586.71-31.64L556.35-31.64L556.35-28.48L586.71-28.48L586.71-25.31L556.35-25.31ZM550.02-72.77L550.02 0L546.86 0L546.86-72.77L550.02-72.77ZM543.69-72.77L543.69 0L540.53 0L540.53-72.77L543.69-72.77ZM537.36-72.77L537.36 0L534.20 0L534.20-72.77L537.36-72.77Z" fill="#00acff"></path></g></g><style>text {
  font-size: 64px;
  font-family: Arial Black;
  dominant-baseline: central;
  text-anchor: middle;
}</style></svg>